<mxfile host="www.draw.io" modified="2020-04-18T14:11:00.686Z" agent="5.0 (Macintosh; Intel Mac OS X 10_14_6) AppleWebKit/537.36 (KHTML, like Gecko) Chrome/80.0.3987.149 Safari/537.36" etag="HycKY7MZH6HYw7_KHRbn" version="12.9.5" type="github">
  <diagram id="GZ8h7QL0BpFVQE84wsnc" name="Page-1">
    <mxGraphModel dx="1373" dy="814" grid="1" gridSize="10" guides="1" tooltips="1" connect="1" arrows="1" fold="1" page="1" pageScale="1" pageWidth="1600" pageHeight="900" math="0" shadow="0">
      <root>
        <mxCell id="0" />
        <mxCell id="1" parent="0" />
        <mxCell id="uBAFbdJrFAXVK9lNb5VW-20" style="edgeStyle=orthogonalEdgeStyle;rounded=0;orthogonalLoop=1;jettySize=auto;html=1;entryX=0.75;entryY=0;entryDx=0;entryDy=0;startArrow=none;startFill=0;fillColor=#8A8A8A;gradientColor=#DBDBDB;fontSize=14;" parent="1" source="xnrWjppSDBu8TEkVuI01-1" edge="1">
          <mxGeometry relative="1" as="geometry">
            <Array as="points">
              <mxPoint x="520" y="520" />
            </Array>
            <mxPoint x="520" y="600" as="targetPoint" />
          </mxGeometry>
        </mxCell>
        <mxCell id="xnrWjppSDBu8TEkVuI01-1" value="&lt;div style=&quot;text-align: center; font-size: 12px;&quot;&gt;&lt;span style=&quot;font-size: 12px;&quot;&gt;Kafka&lt;/span&gt;&lt;/div&gt;" style="ellipse;shape=cloud;whiteSpace=wrap;html=1;rounded=0;strokeColor=#b85450;strokeWidth=1;fillColor=#f8cecc;gradientColor=#ea6b66;fontFamily=Verdana;fontSize=12;opacity=60;align=center;fontStyle=1" parent="1" vertex="1">
          <mxGeometry x="340" y="480" width="120" height="80" as="geometry" />
        </mxCell>
        <mxCell id="xnrWjppSDBu8TEkVuI01-15" value="" style="group" parent="1" vertex="1" connectable="0">
          <mxGeometry x="90" y="360" width="140" height="134" as="geometry" />
        </mxCell>
        <mxCell id="xnrWjppSDBu8TEkVuI01-3" value="" style="rounded=1;whiteSpace=wrap;html=1;strokeColor=#FF3333;strokeWidth=1;fillColor=none;fontFamily=Verdana;fontSize=10;opacity=60;align=left;dashed=1;" parent="xnrWjppSDBu8TEkVuI01-15" vertex="1">
          <mxGeometry width="140" height="134" as="geometry" />
        </mxCell>
        <mxCell id="xnrWjppSDBu8TEkVuI01-4" value="filebeat" style="rounded=1;whiteSpace=wrap;html=1;strokeColor=#d79b00;strokeWidth=1;fillColor=#ffe6cc;fontFamily=Verdana;fontSize=10;align=left;spacingLeft=10;" parent="xnrWjppSDBu8TEkVuI01-15" vertex="1">
          <mxGeometry x="10" y="10" width="120" height="30" as="geometry" />
        </mxCell>
        <mxCell id="xnrWjppSDBu8TEkVuI01-6" value="metricbeat" style="rounded=1;whiteSpace=wrap;html=1;strokeColor=#6c8ebf;strokeWidth=1;fillColor=#dae8fc;fontFamily=Verdana;fontSize=10;align=left;spacingLeft=10;" parent="xnrWjppSDBu8TEkVuI01-15" vertex="1">
          <mxGeometry x="10" y="50" width="120" height="30" as="geometry" />
        </mxCell>
        <mxCell id="xnrWjppSDBu8TEkVuI01-9" value="packetbeat" style="rounded=1;whiteSpace=wrap;html=1;strokeColor=#82b366;strokeWidth=1;fillColor=#d5e8d4;fontFamily=Verdana;fontSize=10;align=left;spacingLeft=10;" parent="xnrWjppSDBu8TEkVuI01-15" vertex="1">
          <mxGeometry x="10" y="90" width="120" height="30" as="geometry" />
        </mxCell>
        <mxCell id="xnrWjppSDBu8TEkVuI01-74" style="edgeStyle=orthogonalEdgeStyle;rounded=0;orthogonalLoop=1;jettySize=auto;html=1;entryX=0;entryY=0.5;entryDx=0;entryDy=0;startArrow=classic;startFill=1;" parent="1" source="xnrWjppSDBu8TEkVuI01-67" target="xnrWjppSDBu8TEkVuI01-71" edge="1">
          <mxGeometry relative="1" as="geometry" />
        </mxCell>
        <mxCell id="xnrWjppSDBu8TEkVuI01-67" value="&lt;div style=&quot;text-align: center ; font-size: 12px&quot;&gt;&lt;span style=&quot;font-size: 12px&quot;&gt;ES Cluster&lt;/span&gt;&lt;/div&gt;" style="ellipse;shape=cloud;whiteSpace=wrap;html=1;rounded=0;strokeColor=#6c8ebf;strokeWidth=1;fillColor=#dae8fc;gradientColor=#7ea6e0;fontFamily=Verdana;fontSize=12;opacity=60;align=center;fontStyle=1" parent="1" vertex="1">
          <mxGeometry x="740" y="480" width="120" height="80" as="geometry" />
        </mxCell>
        <mxCell id="xnrWjppSDBu8TEkVuI01-69" value="" style="group" parent="1" vertex="1" connectable="0">
          <mxGeometry x="940" y="453" width="140" height="134" as="geometry" />
        </mxCell>
        <mxCell id="xnrWjppSDBu8TEkVuI01-70" value="" style="group" parent="xnrWjppSDBu8TEkVuI01-69" vertex="1" connectable="0">
          <mxGeometry width="140" height="134" as="geometry" />
        </mxCell>
        <mxCell id="xnrWjppSDBu8TEkVuI01-71" value="" style="rounded=1;whiteSpace=wrap;html=1;strokeColor=#FF3333;strokeWidth=1;fillColor=none;fontFamily=Verdana;fontSize=10;opacity=60;align=left;dashed=1;" parent="xnrWjppSDBu8TEkVuI01-70" vertex="1">
          <mxGeometry width="140" height="134" as="geometry" />
        </mxCell>
        <mxCell id="xnrWjppSDBu8TEkVuI01-72" value="kibana" style="rounded=1;whiteSpace=wrap;html=1;strokeColor=#d6b656;strokeWidth=1;fillColor=#fff2cc;fontFamily=Verdana;fontSize=10;align=left;spacingLeft=10;" parent="xnrWjppSDBu8TEkVuI01-70" vertex="1">
          <mxGeometry x="10" y="10" width="120" height="30" as="geometry" />
        </mxCell>
        <mxCell id="xnrWjppSDBu8TEkVuI01-73" value="kibana" style="rounded=1;whiteSpace=wrap;html=1;strokeColor=#d6b656;strokeWidth=1;fillColor=#fff2cc;fontFamily=Verdana;fontSize=10;align=left;spacingLeft=10;" parent="xnrWjppSDBu8TEkVuI01-70" vertex="1">
          <mxGeometry x="10" y="90" width="120" height="30" as="geometry" />
        </mxCell>
        <mxCell id="GJRlD4kEulTE51JU0osP-2" value="VM" style="rounded=1;whiteSpace=wrap;html=1;fontSize=9;fontStyle=1;gradientColor=#FF9933;fillColor=#FFFF33;fontFamily=Verdana;dashed=1;opacity=60;arcSize=22;" vertex="1" parent="xnrWjppSDBu8TEkVuI01-70">
          <mxGeometry x="110" y="20" width="20" height="20" as="geometry" />
        </mxCell>
        <mxCell id="GJRlD4kEulTE51JU0osP-1" value="VM" style="rounded=1;whiteSpace=wrap;html=1;fontSize=9;fontStyle=1;gradientColor=#FF9933;fillColor=#FFFF33;fontFamily=Verdana;dashed=1;opacity=60;arcSize=50;" vertex="1" parent="xnrWjppSDBu8TEkVuI01-70">
          <mxGeometry x="110" y="100" width="20" height="20" as="geometry" />
        </mxCell>
        <mxCell id="rvDjTY9M8Ar2wrNe7Sa7-16" value="&lt;b&gt;&lt;i&gt;&lt;font style=&quot;font-size: 14px&quot;&gt;metal &amp;amp; VMs&lt;/font&gt;&lt;/i&gt;&lt;/b&gt;" style="text;html=1;strokeColor=none;fillColor=none;align=center;verticalAlign=middle;whiteSpace=wrap;rounded=0;" parent="1" vertex="1">
          <mxGeometry x="80" y="340" width="90" height="20" as="geometry" />
        </mxCell>
        <mxCell id="uBAFbdJrFAXVK9lNb5VW-14" style="edgeStyle=orthogonalEdgeStyle;rounded=0;orthogonalLoop=1;jettySize=auto;html=1;entryX=0.068;entryY=0.543;entryDx=0;entryDy=0;entryPerimeter=0;startArrow=none;startFill=0;fontSize=14;" parent="1" target="xnrWjppSDBu8TEkVuI01-67" edge="1">
          <mxGeometry relative="1" as="geometry">
            <Array as="points">
              <mxPoint x="710" y="660" />
              <mxPoint x="710" y="523" />
            </Array>
            <mxPoint x="600" y="660" as="sourcePoint" />
          </mxGeometry>
        </mxCell>
        <mxCell id="uBAFbdJrFAXVK9lNb5VW-15" value="" style="shape=flexArrow;endArrow=classic;html=1;fontSize=14;fillColor=#8A8A8A;gradientColor=#DBDBDB;" parent="1" edge="1">
          <mxGeometry width="50" height="50" relative="1" as="geometry">
            <mxPoint x="220" y="520" as="sourcePoint" />
            <mxPoint x="330" y="519.5" as="targetPoint" />
          </mxGeometry>
        </mxCell>
        <mxCell id="uBAFbdJrFAXVK9lNb5VW-17" style="edgeStyle=orthogonalEdgeStyle;rounded=0;orthogonalLoop=1;jettySize=auto;html=1;startArrow=none;startFill=0;fillColor=#8A8A8A;gradientColor=#DBDBDB;fontSize=14;" parent="1" edge="1">
          <mxGeometry relative="1" as="geometry">
            <mxPoint x="260" y="530" as="targetPoint" />
            <mxPoint x="280" y="665" as="sourcePoint" />
          </mxGeometry>
        </mxCell>
        <mxCell id="uBAFbdJrFAXVK9lNb5VW-18" style="edgeStyle=orthogonalEdgeStyle;rounded=0;orthogonalLoop=1;jettySize=auto;html=1;startArrow=none;startFill=0;fillColor=#8A8A8A;gradientColor=#DBDBDB;fontSize=14;" parent="1" source="xnrWjppSDBu8TEkVuI01-6" edge="1">
          <mxGeometry relative="1" as="geometry">
            <mxPoint x="260" y="510" as="targetPoint" />
          </mxGeometry>
        </mxCell>
        <mxCell id="GJRlD4kEulTE51JU0osP-7" value="" style="group" vertex="1" connectable="0" parent="1">
          <mxGeometry x="280" y="600" width="320" height="250" as="geometry" />
        </mxCell>
        <mxCell id="GJRlD4kEulTE51JU0osP-23" value="" style="group" vertex="1" connectable="0" parent="1">
          <mxGeometry x="280" y="600" width="320" height="130" as="geometry" />
        </mxCell>
        <mxCell id="GJRlD4kEulTE51JU0osP-24" value="" style="rounded=1;whiteSpace=wrap;html=1;strokeColor=#FF3333;strokeWidth=3;fillColor=none;fontFamily=Verdana;fontSize=10;opacity=60;align=left;dashed=1;" vertex="1" parent="GJRlD4kEulTE51JU0osP-23">
          <mxGeometry width="320" height="130" as="geometry" />
        </mxCell>
        <mxCell id="GJRlD4kEulTE51JU0osP-25" value="filebeat" style="rounded=1;whiteSpace=wrap;html=1;strokeColor=#d79b00;strokeWidth=1;fillColor=#ffe6cc;fontFamily=Verdana;fontSize=10;align=left;spacingLeft=10;" vertex="1" parent="GJRlD4kEulTE51JU0osP-23">
          <mxGeometry x="10" y="10" width="120" height="30" as="geometry" />
        </mxCell>
        <mxCell id="GJRlD4kEulTE51JU0osP-26" value="metricbeat" style="rounded=1;whiteSpace=wrap;html=1;strokeColor=#6c8ebf;strokeWidth=1;fillColor=#dae8fc;fontFamily=Verdana;fontSize=10;align=left;spacingLeft=10;" vertex="1" parent="GJRlD4kEulTE51JU0osP-23">
          <mxGeometry x="10" y="50" width="120" height="30" as="geometry" />
        </mxCell>
        <mxCell id="GJRlD4kEulTE51JU0osP-27" value="DP" style="rounded=1;whiteSpace=wrap;html=1;fontSize=9;fontStyle=1;gradientColor=#FF9933;fillColor=#FFFF33;fontFamily=Verdana;dashed=1;opacity=60;arcSize=22;" vertex="1" parent="GJRlD4kEulTE51JU0osP-23">
          <mxGeometry x="110" y="20" width="20" height="20" as="geometry" />
        </mxCell>
        <mxCell id="GJRlD4kEulTE51JU0osP-28" value="DP" style="rounded=1;whiteSpace=wrap;html=1;fontSize=9;fontStyle=1;gradientColor=#FF9933;fillColor=#FFFF33;fontFamily=Verdana;dashed=1;opacity=60;" vertex="1" parent="GJRlD4kEulTE51JU0osP-23">
          <mxGeometry x="110" y="60" width="20" height="20" as="geometry" />
        </mxCell>
        <mxCell id="GJRlD4kEulTE51JU0osP-29" style="edgeStyle=orthogonalEdgeStyle;rounded=0;orthogonalLoop=1;jettySize=auto;html=1;exitX=0.5;exitY=1;exitDx=0;exitDy=0;startArrow=none;startFill=0;fontSize=14;" edge="1" parent="GJRlD4kEulTE51JU0osP-23" source="GJRlD4kEulTE51JU0osP-24" target="GJRlD4kEulTE51JU0osP-24">
          <mxGeometry relative="1" as="geometry" />
        </mxCell>
        <mxCell id="GJRlD4kEulTE51JU0osP-30" value="logstash-fb" style="rounded=1;whiteSpace=wrap;html=1;strokeColor=#d6b656;strokeWidth=1;fillColor=#fff2cc;fontFamily=Verdana;fontSize=10;align=left;spacingLeft=10;" vertex="1" parent="GJRlD4kEulTE51JU0osP-23">
          <mxGeometry x="191" y="10" width="120" height="30" as="geometry" />
        </mxCell>
        <mxCell id="GJRlD4kEulTE51JU0osP-31" value="DP" style="rounded=1;whiteSpace=wrap;html=1;fontSize=9;fontStyle=1;gradientColor=#FF9933;fillColor=#FFFF33;fontFamily=Verdana;dashed=1;opacity=60;arcSize=22;" vertex="1" parent="GJRlD4kEulTE51JU0osP-23">
          <mxGeometry x="291" y="20" width="20" height="20" as="geometry" />
        </mxCell>
        <mxCell id="GJRlD4kEulTE51JU0osP-32" value="logstash-mb" style="rounded=1;whiteSpace=wrap;html=1;strokeColor=#d6b656;strokeWidth=1;fillColor=#fff2cc;fontFamily=Verdana;fontSize=10;align=left;spacingLeft=10;" vertex="1" parent="GJRlD4kEulTE51JU0osP-23">
          <mxGeometry x="191" y="50" width="120" height="30" as="geometry" />
        </mxCell>
        <mxCell id="GJRlD4kEulTE51JU0osP-33" value="DP" style="rounded=1;whiteSpace=wrap;html=1;fontSize=9;fontStyle=1;gradientColor=#FF9933;fillColor=#FFFF33;fontFamily=Verdana;dashed=1;opacity=60;arcSize=22;" vertex="1" parent="GJRlD4kEulTE51JU0osP-23">
          <mxGeometry x="291" y="60" width="20" height="20" as="geometry" />
        </mxCell>
        <mxCell id="GJRlD4kEulTE51JU0osP-34" value="logstash-pb" style="rounded=1;whiteSpace=wrap;html=1;strokeColor=#d6b656;strokeWidth=1;fillColor=#fff2cc;fontFamily=Verdana;fontSize=10;align=left;spacingLeft=10;" vertex="1" parent="GJRlD4kEulTE51JU0osP-23">
          <mxGeometry x="191" y="90" width="120" height="30" as="geometry" />
        </mxCell>
        <mxCell id="GJRlD4kEulTE51JU0osP-35" value="DP" style="rounded=1;whiteSpace=wrap;html=1;fontSize=9;fontStyle=1;gradientColor=#FF9933;fillColor=#FFFF33;fontFamily=Verdana;dashed=1;opacity=60;arcSize=22;" vertex="1" parent="GJRlD4kEulTE51JU0osP-23">
          <mxGeometry x="291" y="100" width="20" height="20" as="geometry" />
        </mxCell>
        <mxCell id="GJRlD4kEulTE51JU0osP-36" value="OpenShift" style="text;html=1;strokeColor=none;fillColor=none;align=center;verticalAlign=middle;whiteSpace=wrap;rounded=0;fontStyle=3;fontSize=14;" vertex="1" parent="1">
          <mxGeometry x="290" y="580" width="40" height="20" as="geometry" />
        </mxCell>
      </root>
    </mxGraphModel>
  </diagram>
</mxfile>
